<?xml version="1.0" encoding="UTF-8"?>
<svg id="Capa_1" data-name="Capa 1" xmlns="http://www.w3.org/2000/svg" viewBox="0 0 464.43 381.97">
  <defs>
    <style>
      .cls-1 {
        fill: #fff;
      }

      .cls-2 {
        fill: #e41915;
      }
    </style>
  </defs>
  <path class="cls-1" d="m154.51,179.77c-1.78-1.1-3.54-1.76-4.67-3-1.16-1.27-2.77-1.42-3.91-2.32-1.59-1.24-2.91-2.71-4.93-3.41-1.51-.53-2.83-1.57-4.23-2.41-1.76-1.05-2.94-3.12-5.35-3.03-.2,0-.41-.14-.59-.26-1.74-1.06-3.41-2.25-5.22-3.15-1.87-.93-3.9-1.53-5.81-2.39-2.32-1.05-4.47-2.64-6.88-3.23-2.62-.65-4.77-2.91-7.74-2.25-.12.03-.36-.06-.4-.15-.81-1.91-2.58-1.33-4.03-1.57-.51-.09-1.3-.05-1.47-.35-.96-1.66-2.55-1.21-3.96-1.38-.96-.11-2.19.08-2.82-.44-2.25-1.86-4.93-1.22-7.42-1.67-.73-.13-1.47-.22-2.2-.39-1.82-.43-3.65-1.31-5.46-1.29-10.85.15-21.81-1.72-32.49,1.72-2.89.93-5.89,1.51-8.84,2.27-.2.05-.35.24-.54.36-1.64.99-3.17,2.37-4.95,2.86-2.43.67-4.18,2.26-6.17,3.53-1.14.73-2.25,1.54-3.25,2.45-1.52,1.39-2.99,2.85-4.39,4.37-1.49,1.62-2.97,3.27-4.27,5.04-1.2,1.64-2.26,3.4-3.2,5.2-.87,1.67-1.03,3.99-2.31,5.09-2.26,1.93-1.98,4.77-3.05,7.03-1.69,3.55-1.62,7.93-2.33,11.95-.12.7-.38,1.38-.63,2.05-.29.78-.92,1.53-.93,2.3C-.02,212.39,0,221.5.01,230.61c0,.59-.07,1.48.25,1.71,1.87,1.28,1.24,3.2,1.4,4.89.21,2.38.16,4.79.48,7.15.22,1.63,1,3.17,1.33,4.79.85,4.22,1.59,8.47,2.39,12.7.05.27.31.48.43.74.4.89.89,1.75,1.14,2.68.73,2.69,1.36,5.42,2.06,8.12.05.19.3.31.41.5.41.7.89,1.39,1.18,2.14.88,2.29,1.68,4.61,2.53,6.92.42,1.13.78,2.29,1.36,3.33.96,1.72,2.13,3.31,3.09,5.02.86,1.54,1.59,3.16,2.3,4.77.78,1.77,1.49,3.57,2.24,5.35.05.12.24.17.32.29,1.71,2.54,3.41,5.09,5.12,7.63.42.63.84,1.27,1.31,1.86,1.3,1.62,3.25,3.02,3.8,4.86.8,2.67,3.03,4.01,4.4,6.11,2.06,3.18,4.83,5.92,7.41,8.73,1.5,1.64,3.2,3.1,4.88,4.56,1.86,1.61,3.87,3.06,5.69,4.72,2.24,2.04,4.32,4.25,6.53,6.32.79.74,1.75,1.32,2.67,1.91,1.32.84,2.73,1.54,4.01,2.43,2.43,1.7,4.76,3.55,7.2,5.23,1.19.82,2.6,1.33,3.82,2.12,1.56,1,2.96,2.28,4.57,3.17,1.81.99,3.78,1.67,5.67,2.51,1.49.66,3.02,1.28,4.45,2.05,1.81.97,3.45,2.29,5.33,3.07,2.27.95,4.72,1.49,7.09,2.22.35.11.68.29,1.02.43,2.65,1.06,5.24,2.32,7.96,3.11,3.19.93,6.5,1.45,9.76,2.15.07.02.18.01.21.06,1.76,2.3,4.33,1.24,6.56,1.62.63.11,1.27.26,1.87.49.9.34,1.74,1.03,2.65,1.11,3.27.27,6.57.24,9.83.56,1.56.15,3.07,1.18,4.6,1.2,9.04.11,18.07.05,27.11.04.66,0,1.34-.09,1.98-.23,1.84-.41,3.66-1.02,5.52-1.26,1.99-.25,4.03-.13,6.04-.26.62-.04,1.24-.33,1.83-.57.77-.31,1.48-.91,2.26-1,1.77-.21,3.58-.15,5.37-.27.56-.04,1.13-.25,1.66-.46.97-.38,1.87-.97,2.87-1.22,3.17-.81,6.58-1.06,9.5-2.4,1.78-.82,3.9-.8,5.23-1.81,1.9-1.44,3.88-1.44,5.91-1.85.26-.05.45-.37.7-.51,1.76-.93,3.5-1.92,5.3-2.75,1.88-.87,3.88-1.48,5.73-2.41,1.86-.93,3.58-2.14,5.39-3.17,1.57-.89,3.22-1.64,4.76-2.56,2.74-1.64,5.44-3.36,8.15-5.05,1.42-.88,2.89-1.69,4.23-2.68,2.27-1.69,3.77-4.31,6.81-5.1,1.06-.28,1.9-1.5,2.78-2.35,1.63-1.57,3.2-3.2,4.84-4.77,1.54-1.48,3.14-2.91,4.7-4.37,1.7-1.6,3.37-3.23,5.09-4.81,1.32-1.21,2.67-2.39,4.05-3.53,1.72-1.42,3.48-2.78,5.22-4.16,1.42-1.13,2.82-2.29,4.28-3.38,1.12-.84,2.29-1.62,3.47-2.38,1.19-.76,2.61-1.25,3.59-2.22,2.47-2.44,5.53-3.79,8.55-5.3,1.75-.87,3.31-2.11,5.04-3.03,1.68-.89,3.43-1.65,5.2-2.36,1.88-.76,4.33-.91,5.6-2.22,2.1-2.19,5.01-1.43,7.34-3,2.38-1.6,5.78-1.66,8.74-2.4.22-.05.43-.13.64-.2,1.64-.52,3.27-1.09,4.93-1.53.78-.21,1.9.14,2.4-.29,2.78-2.39,6.12-1.31,9.2-1.72.81-.11,1.63-.12,2.41-.32,1.4-.36,2.76-1.17,4.15-1.19,10.9-.1,21.81-.07,32.71-.05.74,0,1.77-.11,2.16.31,1.53,1.62,3.44,1.13,5.25,1.27,1.93.15,4.37-.45,5.7.5,2.27,1.63,4.66,1.17,6.98,1.66.73.16,1.48.2,2.2.41,1.65.48,3.28,1.04,4.92,1.55,2.14.66,4.28,1.31,6.41,1.97.14.04.34.13.36.23.37,1.52,1.64,1.21,2.69,1.36.43.06.89.12,1.27.3,2.23,1.05,4.41,2.2,6.66,3.2,1.99.88,4.09,1.52,6.08,2.42,2.37,1.07,4.67,2.31,7,3.48.25.13.65.23.72.43.73,2.11,2.08,1.19,3.41.89-.41-1.25-.94-2.31-1.09-3.42-1.18-8.86.84-17.96-2.08-26.73-.61-1.84-.19-4.01-.31-6.02-.04-.65-.05-1.65-.44-1.88-1.51-.89-1.13-2.29-1.25-3.57-.12-1.33.27-3.25-.46-3.87-1.69-1.46-1.14-3.23-1.54-4.87-.65-2.68-1.46-5.33-2.22-7.99-.06-.2-.29-.34-.38-.53-.99-2.21-2.05-4.39-2.91-6.65-.8-2.11-1.39-4.3-2.08-6.45-.04-.13-.22-.2-.29-.33-1.05-1.86-2.17-3.69-3.11-5.61-.85-1.73-1.28-3.69-2.3-5.3-1.38-2.19-3.16-4.14-3.69-6.79-.04-.21-.12-.51-.27-.58-2.88-1.44-2.85-4.94-4.99-6.96-1.44-1.37-2.43-3.21-3.63-4.82-1.21-1.63-2.41-3.28-3.67-4.87-1.64-2.07-3.29-4.14-5.03-6.13-1.42-1.61-2.98-3.1-4.48-4.63-2.16-2.21-4.29-4.47-6.51-6.62-1.49-1.45-3.41-2.53-4.63-4.16-2.29-3.07-5.56-4.8-8.49-7.01-.71-.54-1.34-1.19-2.08-1.69-1.39-.94-2.87-1.76-4.25-2.72-2.27-1.58-4.43-3.31-6.74-4.83-1.32-.87-3.03-1.2-4.23-2.18-2.09-1.71-4.47-2.7-6.91-3.69-.27-.11-.53-.24-.79-.38-1.74-.99-3.36-2.32-5.23-2.91-2.28-.72-4.05-2.85-6.74-2.38-.21.04-.47-.33-.73-.45-2.17-.97-4.28-2.09-6.52-2.85-2.77-.94-5.65-1.59-8.48-2.37-.13-.04-.23-.19-.37-.25-.97-.43-1.9-1.06-2.91-1.25-4.16-.78-8.35-1.44-12.53-2.14-.22-.04-.53-.05-.63-.2-1.22-1.86-3.14-1.31-4.85-1.39-2.31-.11-4.63-.09-6.94-.22-.7-.04-1.39-.35-2.07-.59-.79-.28-1.55-.89-2.32-.9-10.98-.05-21.96-.02-32.94,0-.51,0-1.27-.05-1.5.25-1.33,1.75-3.23,1.23-4.94,1.33-2.24.13-4.48.1-6.72.18-.58.02-1.17.15-1.71.34-1.17.41-2.29,1.09-3.49,1.32-4.16.81-8.34,1.48-12.52,2.21-.29.05-.55.2-.83.3-2.8,1.08-5.56,2.27-8.41,3.21-2.56.85-5.21,1.42-7.82,2.12-.14.04-.32.09-.39.2-1.42,2.13-4.26,1.44-6.02,3.09-1.01.95-2.69,1.18-4.05,1.78-1.56.69-3.08,1.47-4.65,2.14-1.88.81-3.92,1.36-5.67,2.38-2.44,1.43-4.61,3.31-7.02,4.8-2.45,1.52-5.05,2.79-7.59,4.17-1.35.74-2.84,1.3-4.01,2.26-1.65,1.36-2.91,3.23-5.32,3.42-.23.02-.43.36-.65.54-1.79,1.52-3.45,3.28-5.43,4.49-1.68,1.02-3.16,2.12-4.49,3.56-.84.91-2.02,1.53-3.06,2.24-1.32.9-2.71,1.71-4,2.65-2.26,1.65-4.43,3.44-6.72,5.05-1.25.88-2.94,1.28-3.96,2.34-2.17,2.27-4.98,3.43-7.55,5-1.35.82-2.77,1.52-4.11,2.33-1.7,1.03-3.27,2.29-5.05,3.15-1.87.91-3.92,1.45-5.88,2.17-.19.07-.31.31-.49.42-.77.45-1.51.96-2.33,1.29-.68.28-1.5.2-2.15.51-3.04,1.46-5.98,3.16-9.45,3.47-.22.02-.53.03-.63.17-1.36,1.92-3.45,1.38-5.31,1.6-.74.08-1.75-.13-2.17.27-1.81,1.73-4.02,1.4-6.13,1.43-10.2.16-20.46,1-30.46-1.91-.49-.14-.89-.58-1.33-.88.3-.36.54-.95.91-1.05,2.54-.65,5.08-1.34,7.67-1.74,1.98-.31,4.02-.18,6.04-.31.65-.04,1.3-.23,1.92-.44,1.07-.36,2.08-.92,3.17-1.18,3.1-.76,6.23-1.42,9.34-2.13.2-.04.34-.28.53-.37,2.21-1.03,4.41-2.09,6.65-3.06,2.1-.91,4.25-1.7,6.36-2.58,1.29-.54,2.61-1.05,3.8-1.76,1.58-.95,3.02-2.12,4.57-3.12,1.11-.71,2.3-1.32,3.47-1.93,1.63-.84,3.85-1.24,4.82-2.55,1.8-2.45,4.85-2.83,6.77-4.92.71-.77,1.71-1.28,2.59-1.89,1.26-.86,2.65-1.58,3.78-2.58,1.97-1.74,3.78-3.65,5.83-5.66Zm14.22-13.45c2.4-1.35,4.39-2.35,6.25-3.54,2.34-1.5,4.53-3.23,6.88-4.72,1.35-.85,3.29-1.07,4.25-2.18,1.55-1.81,3.92-1.87,5.57-3.36,1.02-.92,2.61-1.17,3.75-1.99,2.37-1.71,4.68-3.46,7.67-3.93.11-.02.19-.23.31-.3,1.71-.98,3.36-2.11,5.17-2.86,1.58-.65,3.2-.58,4.86-1.79,2.63-1.92,6.05-2.83,9.21-3.93,2.59-.9,5.29-1.47,7.95-2.19.21-.06.43-.11.64-.18,1.55-.52,3.07-1.22,4.66-1.53,2.72-.53,5.04-2.59,8.03-2.04.13.02.3-.31.49-.41.73-.39,1.45-.96,2.23-1.1,4.39-.82,8.8-1.53,13.2-2.28.07-.01.16,0,.22-.04,3.18-2.19,6.88-1.33,10.36-1.76.66-.08,1.32-.16,1.96-.32,1.69-.42,3.36-1.2,5.05-1.26,6.49-.23,12.99-.22,19.49-.37.6-.01,1.68-.53,1.7-.85.03-.84-.32-1.73-.68-2.53-.27-.6-.83-1.07-1.2-1.63-.35-.54-.54-1.21-.96-1.68-1.46-1.62-3.1-3.1-4.48-4.79-1.57-1.94-2.8-4.16-4.42-6.06-2.32-2.71-4.74-5.36-7.33-7.81-1.78-1.68-3.94-2.95-5.88-4.46-1.86-1.45-3.46-2.9-3.23-5.75.28-3.41.01-6.86-.04-10.3,0-.59.08-1.47-.24-1.71-1.78-1.34-1.23-3.23-1.31-4.93-.14-3.28-.13-6.57-.25-9.85-.03-.71-.28-1.42-.52-2.11-.34-.99-.95-1.92-1.11-2.93-.79-4.93-.93-10.04-2.39-14.75-.81-2.62-1.4-5.16-1.73-7.84-.04-.34-.27-.66-.41-.99-.42-1.03-.95-2.03-1.22-3.09-.28-1.14.12-2.78-.54-3.44-2.31-2.31-1.08-5.69-2.98-8.23-1.45-1.93-1.56-4.82-2.45-7.21-1.11-2.99-2.44-5.9-3.63-8.86-.45-1.11-2.47-1.81-3.05-.9-.88,1.39-1.55,2.91-2.31,4.37-.13.26-.18.64-.39.76-2.69,1.59-3,4.86-4.96,6.99-1.13,1.23-1.7,2.95-2.7,4.32-1.11,1.52-3.09,2.41-3.23,4.63-.02.29-.4.58-.64.84-1.52,1.69-3.01,3.4-4.57,5.04-1.63,1.72-3.34,3.37-5.01,5.07-1.46,1.49-2.84,3.08-4.38,4.49-1.63,1.49-3.3,3-5.16,4.18-1.67,1.06-3.71,1.53-5.42,2.54-2.79,1.65-5.57,3.21-8.85,3.58-.22.03-.56,0-.64.13-1.42,2.2-3.71,1.35-5.67,1.64-.66.1-1.34.09-1.99.24-1.89.45-3.74,1.21-5.65,1.38-3.04.29-6.12.17-9.18.3-.7.03-1.4.31-2.08.54-.8.27-1.56.84-2.35.87-2.91.1-5.82.05-8.74.02-.58,0-1.17-.14-1.73-.3-1.21-.36-2.43-1.17-3.6-1.09-6.72.45-13.18-1.22-19.7-2.3-2.17-.36-4.24-1.36-6.32-2.16-1.39-.53-2.77-1.14-4.07-1.86-1.87-1.03-3.69-2.16-5.48-3.33-.67-.43-1.13-1.48-1.78-1.58-2.89-.42-4.19-3.01-6.28-4.47-1.72-1.2-2.78-3.31-4.24-4.92-1.73-1.92-3.63-3.69-5.34-5.63-.89-1.02-1.28-2.59-2.31-3.35-2.52-1.85-3.11-4.95-5.11-7.12-1.28-1.39-2.34-3-3.35-4.61-.92-1.45-1.64-3.03-2.46-4.55-.14-.25-.33-.47-.49-.71-1.02-1.54-2.02-3.09-3.06-4.62-.22-.32-.54-.57-.81-.86-.25.32-.57.6-.75.95-.28.59-.42,1.26-.71,1.85-.99,2.05-2.14,4.02-3,6.12-.94,2.31-1.05,5.21-2.55,6.99-1.82,2.16-.69,5.05-2.89,7.13-1.14,1.08-.58,3.77-1.76,5.77-1.15,1.95-.7,4.66-1.85,7.07-1.09,2.27-.76,5.14-1.82,7.79-1.18,2.94-.77,6.38-1.95,9.61-1.33,3.64-.68,7.77-1.75,11.72-1.78,6.55.74,13.68-2.14,20.3-.69,1.58-.14,3.69-.21,5.56-.02.57-.05,1.34-.4,1.68-2,1.96-4.12,3.78-6.15,5.71-2.3,2.17-4.6,4.35-6.8,6.63-2.08,2.15-4.05,4.4-6.03,6.65-1.83,2.06-4.27,3.58-5.15,6.5-.33,1.09-1.63,1.85-2.31,2.88-.48.73-.84,1.66-.88,2.51-.01.26,1.23.81,1.91.83,6.79.16,13.59.21,20.39.35,1.02.02,2.06.28,3.06.53,1.17.29,2.3.87,3.48,1.03,2.51.32,5.07.31,7.57.69,1.92.29,3.77,1.06,5.68,1.46,3.56.74,7.15,1.37,10.73,2.05.14.03.36.05.41.14,1.26,2.15,3.43,1.19,5.21,1.56.9.19,1.81.43,2.67.75.7.26,1.31.78,2.01.97,2.85.76,5.72,1.43,8.58,2.13.14.04.27.12.41.18,2.42,1.13,4.79,2.37,7.27,3.34,2.27.89,4.89,1.12,6.91,2.37,1.36.84,2.56,1.46,4.09,1.61.24.02.44.35.69.49,1.72.96,3.4,1.99,5.17,2.84,1.9.92,3.9,1.62,5.82,2.5,1.28.58,2.54,1.22,3.72,1.96,1.57.99,3.05,2.11,4.58,3.15.91.61,1.84,1.2,2.78,1.75,2.04,1.19,4.09,2.35,6.15,3.52,1.53.87,3.09,1.69,4.61,2.58.35.21.56.64.89.89,1.46,1.08,2.94,2.12,4.49,3.24Z"/>
  <path class="cls-2" d="m154.51,179.77c-2.05,2.01-3.87,3.92-5.83,5.66-1.13,1-2.52,1.72-3.78,2.58-.88.61-1.88,1.12-2.59,1.89-1.92,2.09-4.96,2.47-6.77,4.92-.97,1.32-3.18,1.71-4.82,2.55-1.18.61-2.36,1.21-3.47,1.93-1.55.99-2.99,2.17-4.57,3.12-1.19.71-2.51,1.22-3.8,1.76-2.11.88-4.26,1.67-6.36,2.58-2.24.97-4.43,2.03-6.65,3.06-.19.09-.34.32-.53.37-3.11.72-6.24,1.37-9.34,2.13-1.09.27-2.1.82-3.17,1.18-.62.21-1.27.4-1.92.44-2.01.13-4.06,0-6.04.31-2.59.4-5.13,1.09-7.67,1.74-.37.1-.61.69-.91,1.05.44.3.84.74,1.33.88,10.01,2.91,20.26,2.07,30.46,1.91,2.11-.03,4.32.29,6.13-1.43.42-.4,1.43-.19,2.17-.27,1.86-.21,3.95.32,5.31-1.6.1-.14.41-.15.63-.17,3.46-.31,6.41-2.01,9.45-3.47.65-.31,1.48-.24,2.15-.51.82-.33,1.56-.84,2.33-1.29.18-.11.3-.35.49-.42,1.96-.72,4.01-1.26,5.88-2.17,1.77-.86,3.35-2.12,5.05-3.15,1.35-.82,2.77-1.51,4.11-2.33,2.58-1.57,5.38-2.73,7.55-5,1.02-1.06,2.7-1.46,3.96-2.34,2.29-1.62,4.46-3.4,6.72-5.05,1.29-.94,2.68-1.75,4-2.65,1.05-.71,2.22-1.33,3.06-2.24,1.33-1.44,2.82-2.54,4.49-3.56,1.98-1.21,3.64-2.97,5.43-4.49.22-.19.42-.53.65-.54,2.41-.18,3.67-2.06,5.32-3.42,1.17-.96,2.66-1.52,4.01-2.26,2.54-1.38,5.14-2.66,7.59-4.17,2.41-1.49,4.58-3.37,7.02-4.8,1.75-1.03,3.79-1.57,5.67-2.38,1.57-.68,3.09-1.45,4.65-2.14,1.36-.6,3.03-.83,4.05-1.78,1.77-1.65,4.6-.96,6.02-3.09.07-.11.25-.16.39-.2,2.61-.7,5.26-1.27,7.82-2.12,2.84-.94,5.61-2.13,8.41-3.21.27-.11.54-.25.83-.3,4.17-.73,8.36-1.4,12.52-2.21,1.2-.23,2.32-.91,3.49-1.32.54-.19,1.14-.32,1.71-.34,2.24-.08,4.48-.05,6.72-.18,1.71-.1,3.61.42,4.94-1.33.22-.29.98-.24,1.5-.25,10.98-.03,21.96-.05,32.94,0,.78,0,1.54.62,2.32.9.68.24,1.37.56,2.07.59,2.31.13,4.63.1,6.94.22,1.71.08,3.62-.47,4.85,1.39.09.14.41.16.63.2,4.18.71,8.37,1.36,12.53,2.14,1.01.19,1.95.82,2.91,1.25.13.06.23.21.37.25,2.83.78,5.71,1.43,8.48,2.37,2.24.76,4.36,1.88,6.52,2.85.26.12.52.49.73.45,2.69-.47,4.47,1.67,6.74,2.38,1.86.59,3.49,1.92,5.23,2.91.25.14.52.27.79.38,2.43.98,4.82,1.98,6.91,3.69,1.2.98,2.91,1.32,4.23,2.18,2.31,1.52,4.48,3.25,6.74,4.83,1.38.96,2.86,1.78,4.25,2.72.74.5,1.37,1.15,2.08,1.69,2.93,2.21,6.2,3.94,8.49,7.01,1.21,1.63,3.14,2.71,4.63,4.16,2.22,2.15,4.35,4.41,6.51,6.62,1.5,1.54,3.07,3.02,4.48,4.63,1.75,1.98,3.39,4.06,5.03,6.13,1.26,1.59,2.46,3.24,3.67,4.87,1.2,1.62,2.19,3.46,3.63,4.82,2.14,2.02,2.11,5.52,4.99,6.96.15.08.23.38.27.58.53,2.65,2.31,4.59,3.69,6.79,1.01,1.61,1.45,3.57,2.3,5.3.94,1.92,2.06,3.74,3.11,5.61.07.12.25.2.29.33.69,2.15,1.28,4.34,2.08,6.45.86,2.26,1.93,4.44,2.91,6.65.09.2.32.34.38.53.76,2.66,1.57,5.3,2.22,7.99.4,1.65-.15,3.41,1.54,4.87.73.63.33,2.54.46,3.87.12,1.28-.25,2.68,1.25,3.57.39.23.4,1.23.44,1.88.11,2.01-.3,4.18.31,6.02,2.92,8.77.89,17.87,2.08,26.73.15,1.11.68,2.17,1.09,3.42-1.33.3-2.68,1.22-3.41-.89-.07-.2-.47-.3-.72-.43-2.33-1.17-4.63-2.4-7-3.48-1.99-.9-4.09-1.54-6.08-2.42-2.25-1-4.44-2.15-6.66-3.2-.39-.18-.84-.24-1.27-.3-1.05-.15-2.33.16-2.69-1.36-.02-.1-.23-.19-.36-.23-2.14-.66-4.28-1.31-6.41-1.97-1.64-.51-3.27-1.07-4.92-1.55-.71-.21-1.47-.26-2.2-.41-2.32-.49-4.71-.03-6.98-1.66-1.33-.96-3.76-.35-5.7-.5-1.8-.14-3.72.35-5.25-1.27-.39-.42-1.42-.3-2.16-.31-10.9-.01-21.81-.05-32.71.05-1.39.01-2.75.83-4.15,1.19-.78.2-1.61.21-2.41.32-3.09.41-6.43-.67-9.2,1.72-.51.43-1.62.08-2.4.29-1.66.44-3.29,1.01-4.93,1.53-.21.07-.42.14-.64.2-2.96.74-6.36.8-8.74,2.4-2.33,1.57-5.24.81-7.34,3-1.26,1.32-3.72,1.46-5.6,2.22-1.76.72-3.52,1.47-5.2,2.36-1.73.92-3.29,2.15-5.04,3.03-3.02,1.51-6.08,2.86-8.55,5.3-.97.96-2.4,1.46-3.59,2.22-1.18.76-2.35,1.54-3.47,2.38-1.45,1.09-2.86,2.25-4.28,3.38-1.74,1.38-3.5,2.74-5.22,4.16-1.38,1.14-2.73,2.32-4.05,3.53-1.72,1.58-3.39,3.21-5.09,4.81-1.56,1.46-3.16,2.89-4.7,4.37-1.63,1.57-3.21,3.2-4.84,4.77-.88.85-1.72,2.07-2.78,2.35-3.04.79-4.55,3.41-6.81,5.1-1.33.99-2.81,1.8-4.23,2.68-2.71,1.69-5.41,3.41-8.15,5.05-1.55.92-3.2,1.67-4.76,2.56-1.81,1.03-3.53,2.24-5.39,3.17-1.85.93-3.85,1.54-5.73,2.41-1.81.84-3.54,1.82-5.3,2.75-.25.13-.44.46-.7.51-2.02.41-4.01.41-5.91,1.85-1.32,1-3.45.99-5.23,1.81-2.91,1.34-6.32,1.59-9.5,2.4-1,.25-1.9.84-2.87,1.22-.53.21-1.1.42-1.66.46-1.79.12-3.59.06-5.37.27-.78.09-1.49.68-2.26,1-.59.24-1.21.53-1.83.57-2.01.13-4.05,0-6.04.26-1.86.24-3.68.85-5.52,1.26-.65.14-1.32.23-1.98.23-9.04.02-18.08.08-27.11-.04-1.54-.02-3.04-1.05-4.6-1.2-3.27-.31-6.56-.28-9.83-.56-.91-.08-1.75-.77-2.65-1.11-.6-.23-1.23-.38-1.87-.49-2.23-.38-4.8.68-6.56-1.62-.04-.05-.14-.04-.21-.06-3.26-.7-6.57-1.22-9.76-2.15-2.73-.79-5.31-2.05-7.96-3.11-.34-.14-.67-.32-1.02-.43-2.37-.73-4.81-1.27-7.09-2.22-1.88-.78-3.52-2.1-5.33-3.07-1.44-.77-2.96-1.39-4.45-2.05-1.89-.84-3.87-1.52-5.67-2.51-1.62-.89-3.01-2.17-4.57-3.17-1.22-.78-2.63-1.29-3.82-2.12-2.44-1.68-4.77-3.53-7.2-5.23-1.28-.89-2.69-1.6-4.01-2.43-.92-.59-1.88-1.17-2.67-1.91-2.21-2.07-4.29-4.28-6.53-6.32-1.82-1.66-3.83-3.1-5.69-4.72-1.68-1.46-3.38-2.92-4.88-4.56-2.59-2.81-5.35-5.55-7.41-8.73-1.36-2.1-3.6-3.44-4.4-6.11-.55-1.83-2.5-3.24-3.8-4.86-.47-.59-.89-1.23-1.31-1.86-1.71-2.54-3.41-5.09-5.12-7.63-.08-.12-.27-.17-.32-.29-.75-1.78-1.45-3.58-2.24-5.35-.72-1.61-1.44-3.23-2.3-4.77-.96-1.71-2.14-3.31-3.09-5.02-.58-1.04-.94-2.21-1.36-3.33-.85-2.3-1.65-4.63-2.53-6.92-.29-.75-.77-1.43-1.18-2.14-.11-.18-.36-.31-.41-.5-.69-2.71-1.32-5.43-2.06-8.12-.25-.93-.74-1.79-1.14-2.68-.12-.26-.38-.48-.43-.74-.8-4.23-1.54-8.48-2.39-12.7-.33-1.62-1.11-3.16-1.33-4.79-.32-2.36-.27-4.77-.48-7.15-.15-1.69.47-3.61-1.4-4.89-.33-.22-.25-1.12-.25-1.71-.01-9.11-.03-18.22.03-27.33,0-.77.64-1.52.93-2.3.25-.67.51-1.35.63-2.05.71-4.02.64-8.4,2.33-11.95,1.07-2.25.79-5.1,3.05-7.03,1.28-1.09,1.45-3.42,2.31-5.09.94-1.8,2-3.57,3.2-5.2,1.3-1.77,2.78-3.42,4.27-5.04,1.4-1.52,2.87-2.98,4.39-4.37,1-.91,2.11-1.72,3.25-2.45,1.99-1.27,3.74-2.86,6.17-3.53,1.78-.49,3.31-1.87,4.95-2.86.18-.11.34-.31.54-.36,2.95-.76,5.95-1.34,8.84-2.27,10.69-3.44,21.65-1.58,32.49-1.72,1.81-.02,3.63.86,5.46,1.29.72.17,1.46.25,2.2.39,2.49.45,5.17-.19,7.42,1.67.63.52,1.86.33,2.82.44,1.42.16,3.01-.28,3.96,1.38.17.3.96.27,1.47.35,1.45.24,3.22-.34,4.03,1.57.04.09.28.18.4.15,2.97-.66,5.12,1.61,7.74,2.25,2.41.59,4.57,2.18,6.88,3.23,1.91.86,3.94,1.46,5.81,2.39,1.81.91,3.48,2.09,5.22,3.15.18.11.4.26.59.26,2.41-.08,3.59,1.98,5.35,3.03,1.4.83,2.72,1.88,4.23,2.41,2.02.71,3.34,2.17,4.93,3.41,1.15.9,2.75,1.04,3.91,2.32,1.13,1.24,2.89,1.9,4.67,3Zm144.54-21.65v.02c-6.5,0-13-.02-19.49.02-.94,0-1.9.28-2.82.53-1.16.31-2.28.88-3.46,1.07-2.06.33-4.17.32-6.21.69-1.84.33-3.61,1.01-5.43,1.5-.57.15-1.2.1-1.77.26-1.86.52-3.71,1.09-5.57,1.63-.5.14-1.3.06-1.48.36-1.05,1.81-2.79,1.37-4.35,1.49-1.3.1-2.08.5-2.04,2.01.04,1.64,1.18,1.44,2.19,1.52,6.9.55,13.93-.87,20.7,1.79,1.86.73,4.14.36,6.22.55.65.06,1.3.24,1.93.45,1.14.39,2.22.93,3.38,1.24,2.66.72,5.34,1.33,8.01,2.01.19.05.31.32.5.41.88.42,1.75.84,2.65,1.21,2.19.89,4.41,1.72,6.6,2.62,1.18.48,2.39.95,3.47,1.61,1.76,1.06,3.44,2.26,5.14,3.43.74.51,1.4,1.15,2.16,1.63,1.3.83,2.81,1.41,3.93,2.43,1.91,1.72,3.68,3.63,5.34,5.6,1.04,1.22,1.77,2.71,2.66,4.06.23.34.59.59.81.94.28.43.48.92.72,1.38-.43.21-.85.55-1.3.59-1.56.13-3.39-.33-4.64.33-3.53,1.86-7.28,1-10.9,1.46-.96.12-1.94.21-2.85.52-2.91,1-5.76,2.17-8.68,3.12-2.6.85-5.28,1.49-7.92,2.23-.2.06-.38.21-.57.32-1.9,1.03-3.78,2.11-5.72,3.07-1.76.87-3.78,1.32-5.35,2.43-2.97,2.1-5.69,4.54-8.52,6.83-2.3,1.86-4.67,3.64-6.87,5.6-1.08.97-1.79,2.35-2.78,3.44-1.52,1.69-3.25,3.21-4.67,4.98-1.32,1.64-2.43,3.46-3.48,5.29-.17.29.48,1.53.73,1.52,1.77-.05,3.6-.08,5.29-.55,2.87-.8,5.59-2.24,8.5-2.82,3.57-.72,7.2-.99,10.82-1.82,6.07-1.38,12.44-1.73,18.69-1.86,5.5-.11,10.97-.09,16.56.8,5.9.94,11.93,1.52,17.85,2.66.5.1,1.02.19,1.48.38,2.42,1.01,4.81,2.06,7.23,3.07,1.8.76,3.66,1.39,5.41,2.25.84.41,1.55,1.15,2.22,1.85.21.22.23,1.03.05,1.15-1.1.75-2.25,1.45-3.45,2.02-1.85.89-3.77,1.64-5.63,2.51-1.28.59-2.56,1.2-3.75,1.95-1.57,1-3.05,2.14-4.57,3.22-.82.58-1.64,1.16-2.47,1.71-1.43.94-2.88,1.84-4.3,2.78-2.29,1.52-3.45,4.51-6.51,5.08-.3.06-.56.41-.81.66-1.49,1.57-2.78,3.44-4.51,4.67-3.06,2.19-4.59,5.55-7,8.21-.64.71-1.21,1.49-1.76,2.27-.98,1.39-1.91,2.82-2.88,4.22-.83,1.21-2.06,2.29-2.46,3.62-.59,1.97-2.89,3.2-2.36,5.6.02.11-.32.28-.43.46-.44.69-.92,1.36-1.26,2.1-.53,1.16-1.09,2.34-1.38,3.58-.26,1.11-.18,2.31-.24,3.47.91,0,1.83.1,2.71-.06.36-.07.52-.84.91-1.08,3.29-2.08,6.59-4.14,9.93-6.13,1.42-.84,3.02-1.38,4.43-2.23,1.68-1.02,3.21-2.28,4.88-3.33,1.08-.68,2.25-1.28,3.44-1.74,2.16-.83,4.63-1.15,6.48-2.4,1.19-.8,2.18-1.5,3.59-1.59.21-.01.47-.11.6-.25,1.93-2.21,4.97-1.7,7.36-3.01,2.7-1.47,6.06-1.75,9.13-2.55.07-.02.16-.03.2-.08,2.44-2.64,6.17-1.01,9.16-2.95,2.41-1.56,6.17-.97,9.38-1.76,5.79-1.43,11.99-.74,18.04-1.86,5.56-1.03,11.46-.22,17.21-.21.52,0,1.05.04,1.56.14,2.44.45,4.86,1.08,7.31,1.34,2.67.28,5.37.17,8.06.31.7.04,1.41.31,2.08.56.84.31,1.62.85,2.48,1.03,2.57.53,5.13-.18,7.81,1.54,2.47,1.59,6.01,1.47,9.05,2.22,2.78.69,5.53,1.52,8.26,2.36.35.11.55.94.84.95,1.14.04,3.24.04,3.28-.23.24-1.49.12-3.07-.13-4.59-.19-1.15-.89-2.21-1.14-3.36-.81-3.78-1.51-7.58-2.25-11.36-.03-.14-.1-.28-.16-.42-1.1-2.94-2.52-5.81-3.21-8.85-.58-2.58-2.94-4.61-2.27-7.52-1.63-.73-1.63-2.25-1.81-3.7-.02-.19-.26-.34-.36-.53-1-1.79-2.07-3.56-2.98-5.39-.92-1.83-1.58-3.79-2.55-5.6-1-1.86-2-3.82-3.43-5.33-1.11-1.17-1.36-2.64-2.17-3.8-2.08-3-4.5-5.76-6.8-8.6-.64-.79-1.77-1.48-1.9-2.34-.44-2.86-2.96-4.1-4.48-6.05-1.86-2.41-4.51-4.19-6.71-6.36-2.17-2.15-4.17-4.47-6.32-6.65-.83-.85-1.82-1.54-2.77-2.27-1.39-1.08-2.81-2.14-4.21-3.21-1.02-.79-2-1.62-3.03-2.39-2.19-1.64-4.36-3.31-6.62-4.84-1.44-.98-3.02-1.77-4.55-2.61-1.47-.81-3-1.53-4.46-2.36-1.73-.99-3.36-2.17-5.14-3.07-1.9-.96-3.94-1.66-5.89-2.54-2.31-1.04-4.49-2.56-6.89-3.12-2.57-.59-4.62-2.93-7.54-2.2-.14.03-.34-.25-.53-.34-.91-.46-1.8-.99-2.76-1.31-.83-.28-1.78-.22-2.63-.46-3.59-1.03-7.12-2.26-10.75-3.13-1.86-.45-3.86-.28-5.79-.46-.72-.07-1.43-.3-2.12-.52-1.08-.34-2.13-1.03-3.21-1.04-6.42-.1-12.85-.05-19.27-.05Z"/>
  <path class="cls-2" d="m168.73,166.32c-1.55-1.12-3.03-2.16-4.49-3.24-.33-.25-.54-.69-.89-.89-1.52-.89-3.07-1.71-4.61-2.58-2.06-1.16-4.11-2.33-6.15-3.52-.95-.55-1.87-1.14-2.78-1.75-1.54-1.04-3.01-2.17-4.58-3.15-1.18-.74-2.45-1.38-3.72-1.96-1.92-.87-3.92-1.58-5.82-2.5-1.77-.85-3.46-1.88-5.17-2.84-.25-.14-.45-.46-.69-.49-1.53-.15-2.74-.78-4.09-1.61-2.02-1.25-4.64-1.47-6.91-2.37-2.48-.98-4.85-2.22-7.27-3.34-.13-.06-.26-.15-.41-.18-2.86-.71-5.73-1.38-8.58-2.13-.71-.19-1.32-.72-2.01-.97-.87-.32-1.77-.57-2.67-.75-1.78-.37-3.95.6-5.21-1.56-.06-.1-.27-.11-.41-.14-3.58-.68-7.17-1.31-10.73-2.05-1.91-.4-3.76-1.17-5.68-1.46-2.5-.38-5.06-.37-7.57-.69-1.18-.15-2.31-.73-3.48-1.03-1-.25-2.03-.51-3.06-.53-6.8-.14-13.59-.2-20.39-.35-.68-.02-1.92-.57-1.91-.83.04-.86.4-1.78.88-2.51.68-1.03,1.98-1.79,2.31-2.88.88-2.91,3.32-4.43,5.15-6.5,1.98-2.24,3.95-4.5,6.03-6.65,2.2-2.27,4.5-4.45,6.8-6.63,2.03-1.92,4.16-3.75,6.15-5.71.35-.34.37-1.1.4-1.68.08-1.86-.47-3.97.21-5.56,2.88-6.62.36-13.75,2.14-20.3,1.07-3.95.42-8.07,1.75-11.72,1.18-3.23.77-6.67,1.95-9.61,1.06-2.64.72-5.51,1.82-7.79,1.15-2.4.7-5.12,1.85-7.07,1.18-2,.62-4.69,1.76-5.77,2.2-2.08,1.07-4.98,2.89-7.13,1.5-1.78,1.61-4.68,2.55-6.99.85-2.1,2.01-4.08,3-6.12.29-.59.42-1.25.71-1.85.17-.36.49-.64.75-.95.27.28.59.54.81.86,1.03,1.53,2.04,3.08,3.06,4.62.16.24.35.46.49.71.82,1.52,1.54,3.1,2.46,4.55,1.01,1.61,2.07,3.22,3.35,4.61,2,2.16,2.59,5.27,5.11,7.12,1.03.76,1.42,2.33,2.31,3.35,1.7,1.94,3.6,3.71,5.34,5.63,1.46,1.61,2.52,3.72,4.24,4.92,2.09,1.46,3.39,4.06,6.28,4.47.65.09,1.12,1.14,1.78,1.58,1.79,1.17,3.61,2.29,5.48,3.33,1.3.72,2.68,1.33,4.07,1.86,2.08.8,4.15,1.8,6.32,2.16,6.52,1.08,12.98,2.74,19.7,2.3,1.17-.08,2.39.74,3.6,1.09.56.16,1.15.3,1.73.3,2.91.03,5.83.08,8.74-.02.79-.03,1.55-.6,2.35-.87.68-.23,1.38-.51,2.08-.54,3.06-.13,6.14-.01,9.18-.3,1.91-.18,3.76-.93,5.65-1.38.65-.15,1.33-.15,1.99-.24,1.96-.29,4.25.56,5.67-1.64.08-.13.42-.11.64-.13,3.28-.38,6.06-1.94,8.85-3.58,1.71-1.01,3.75-1.48,5.42-2.54,1.86-1.18,3.53-2.68,5.16-4.18,1.54-1.41,2.92-2.99,4.38-4.49,1.66-1.7,3.37-3.35,5.01-5.07,1.56-1.64,3.05-3.35,4.57-5.04.24-.26.62-.55.64-.84.14-2.22,2.13-3.11,3.23-4.63,1-1.37,1.57-3.09,2.7-4.32,1.96-2.13,2.27-5.4,4.96-6.99.21-.12.26-.5.39-.76.76-1.47,1.43-2.99,2.31-4.37.58-.91,2.61-.21,3.05.9,1.19,2.96,2.51,5.87,3.63,8.86.89,2.39,1,5.28,2.45,7.21,1.91,2.54.68,5.92,2.98,8.23.66.66.25,2.3.54,3.44.27,1.06.8,2.06,1.22,3.09.14.33.36.65.41.99.32,2.67.92,5.22,1.73,7.84,1.46,4.71,1.6,9.82,2.39,14.75.16,1.01.77,1.94,1.11,2.93.23.68.49,1.4.52,2.11.12,3.28.1,6.57.25,9.85.07,1.71-.47,3.6,1.31,4.93.33.25.23,1.13.24,1.71.05,3.43.33,6.89.04,10.3-.24,2.85,1.37,4.3,3.23,5.75,1.94,1.51,4.11,2.78,5.88,4.46,2.59,2.45,5.01,5.09,7.33,7.81,1.62,1.89,2.84,4.12,4.42,6.06,1.37,1.69,3.01,3.17,4.48,4.79.42.47.61,1.14.96,1.68.37.57.93,1.03,1.2,1.63.36.8.71,1.69.68,2.53-.01.31-1.09.83-1.7.85-6.5.15-13,.13-19.49.37-1.7.06-3.36.84-5.05,1.26-.64.16-1.31.24-1.96.32-3.48.43-7.17-.42-10.36,1.76-.06.04-.15.03-.22.04-4.4.75-8.81,1.47-13.2,2.28-.79.15-1.5.71-2.23,1.1-.19.1-.36.43-.49.41-2.99-.55-5.31,1.51-8.03,2.04-1.59.31-3.11,1.01-4.66,1.53-.21.07-.42.13-.64.18-2.65.72-5.36,1.29-7.95,2.19-3.16,1.11-6.58,2.01-9.21,3.93-1.66,1.21-3.28,1.14-4.86,1.79-1.81.74-3.46,1.88-5.17,2.86-.12.07-.19.28-.31.3-2.99.48-5.3,2.23-7.67,3.93-1.14.82-2.73,1.08-3.75,1.99-1.65,1.49-4.02,1.55-5.57,3.36-.96,1.12-2.9,1.33-4.25,2.18-2.35,1.48-4.54,3.22-6.88,4.72-1.86,1.19-3.85,2.19-6.25,3.54Z"/>
  <path class="cls-1" d="m299.05,158.12c6.42,0,12.85-.05,19.27.05,1.07.02,2.13.71,3.21,1.04.69.22,1.4.45,2.12.52,1.93.18,3.94.01,5.79.46,3.62.88,7.16,2.1,10.75,3.13.85.24,1.8.18,2.63.46.96.32,1.85.86,2.76,1.31.19.09.39.38.53.34,2.92-.72,4.97,1.61,7.54,2.2,2.41.56,4.59,2.08,6.89,3.12,1.95.88,3.99,1.57,5.89,2.54,1.78.9,3.41,2.08,5.14,3.07,1.46.83,2.98,1.55,4.46,2.36,1.54.84,3.11,1.63,4.55,2.61,2.26,1.54,4.43,3.21,6.62,4.84,1.03.77,2.01,1.6,3.03,2.39,1.4,1.08,2.82,2.13,4.21,3.21.94.73,1.94,1.42,2.77,2.27,2.14,2.18,4.14,4.5,6.32,6.65,2.2,2.17,4.85,3.95,6.71,6.36,1.51,1.95,4.04,3.19,4.48,6.05.13.86,1.26,1.54,1.9,2.34,2.3,2.84,4.72,5.6,6.8,8.6.81,1.16,1.06,2.63,2.17,3.8,1.43,1.51,2.43,3.46,3.43,5.33.97,1.8,1.63,3.76,2.55,5.6.92,1.84,1.98,3.6,2.98,5.39.1.19.34.34.36.53.18,1.44.18,2.96,1.81,3.7-.66,2.91,1.69,4.94,2.27,7.52.69,3.04,2.11,5.91,3.21,8.85.05.14.13.27.16.42.75,3.79,1.45,7.59,2.25,11.36.25,1.15.95,2.21,1.14,3.36.25,1.51.37,3.1.13,4.59-.04.26-2.14.26-3.28.23-.29,0-.49-.84-.84-.95-2.74-.84-5.48-1.67-8.26-2.36-3.04-.75-6.59-.63-9.05-2.22-2.67-1.72-5.23-1.01-7.81-1.54-.86-.18-1.64-.72-2.48-1.03-.67-.25-1.38-.53-2.08-.56-2.68-.14-5.39-.03-8.06-.31-2.46-.25-4.87-.89-7.31-1.34-.51-.09-1.04-.13-1.56-.14-5.75-.01-11.65-.82-17.21.21-6.05,1.12-12.25.43-18.04,1.86-3.21.79-6.97.19-9.38,1.76-2.99,1.94-6.72.31-9.16,2.95-.04.05-.13.06-.2.08-3.07.8-6.42,1.08-9.13,2.55-2.39,1.31-5.43.8-7.36,3.01-.13.15-.39.24-.6.25-1.41.09-2.41.79-3.59,1.59-1.86,1.25-4.32,1.57-6.48,2.4-1.2.46-2.36,1.06-3.44,1.74-1.66,1.05-3.2,2.31-4.88,3.33-1.41.85-3.01,1.39-4.43,2.23-3.35,1.98-6.64,4.05-9.93,6.13-.39.24-.55,1.02-.91,1.08-.88.16-1.8.06-2.71.06.07-1.16-.02-2.35.24-3.47.29-1.23.85-2.41,1.38-3.58.34-.74.82-1.41,1.26-2.1.11-.18.46-.34.43-.46-.53-2.41,1.77-3.63,2.36-5.6.4-1.33,1.62-2.41,2.46-3.62.97-1.4,1.9-2.83,2.88-4.22.55-.78,1.12-1.57,1.76-2.27,2.42-2.66,3.95-6.02,7-8.21,1.73-1.24,3.01-3.1,4.51-4.67.24-.25.51-.61.81-.66,3.06-.57,4.21-3.56,6.51-5.08,1.42-.95,2.88-1.85,4.3-2.78.84-.55,1.65-1.13,2.47-1.71,1.52-1.07,3-2.22,4.57-3.22,1.18-.75,2.47-1.35,3.75-1.95,1.86-.87,3.78-1.62,5.63-2.51,1.2-.58,2.35-1.28,3.45-2.02.18-.12.16-.93-.05-1.15-.66-.7-1.37-1.43-2.22-1.85-1.75-.85-3.61-1.49-5.41-2.25-2.41-1.01-4.81-2.07-7.23-3.07-.47-.19-.98-.28-1.48-.38-5.92-1.14-11.94-1.72-17.85-2.66-5.59-.89-11.07-.92-16.56-.8-6.26.13-12.63.48-18.69,1.86-3.62.82-7.24,1.09-10.82,1.82-2.9.59-5.62,2.02-8.5,2.82-1.69.47-3.52.5-5.29.55-.25,0-.9-1.22-.73-1.52,1.05-1.83,2.15-3.66,3.48-5.29,1.43-1.76,3.15-3.28,4.67-4.98.99-1.1,1.7-2.47,2.78-3.44,2.2-1.97,4.57-3.74,6.87-5.6,2.83-2.29,5.55-4.74,8.52-6.83,1.57-1.11,3.59-1.57,5.35-2.43,1.94-.95,3.82-2.04,5.72-3.07.19-.1.37-.26.57-.32,2.64-.74,5.31-1.38,7.92-2.23,2.92-.95,5.77-2.12,8.68-3.12.9-.31,1.89-.4,2.85-.52,3.63-.46,7.37.4,10.9-1.46,1.25-.66,3.08-.19,4.64-.33.45-.04.87-.39,1.3-.59-.24-.46-.44-.95-.72-1.38-.22-.34-.58-.6-.81-.94-.89-1.35-1.62-2.84-2.66-4.06-1.66-1.97-3.43-3.87-5.34-5.6-1.12-1.01-2.63-1.59-3.93-2.43-.76-.49-1.42-1.12-2.16-1.63-1.7-1.17-3.38-2.37-5.14-3.43-1.09-.66-2.29-1.12-3.47-1.61-2.19-.9-4.41-1.73-6.6-2.62-.9-.36-1.78-.79-2.65-1.21-.19-.09-.31-.36-.5-.41-2.67-.68-5.35-1.29-8.01-2.01-1.15-.31-2.24-.86-3.38-1.24-.62-.21-1.28-.39-1.93-.45-2.08-.19-4.36.18-6.22-.55-6.77-2.66-13.8-1.24-20.7-1.79-1.01-.08-2.15.12-2.19-1.52-.04-1.51.75-1.91,2.04-2.01,1.55-.12,3.3.32,4.35-1.49.17-.3.98-.22,1.48-.36,1.86-.54,3.71-1.11,5.57-1.63.57-.16,1.19-.11,1.77-.26,1.81-.48,3.59-1.16,5.43-1.5,2.04-.37,4.16-.36,6.21-.69,1.18-.19,2.29-.75,3.46-1.07.92-.25,1.88-.52,2.82-.53,6.5-.05,13-.02,19.49-.02v-.02Z"/>
</svg>